<svg width="20" height="29" viewBox="0 0 20 29" fill="none" xmlns="http://www.w3.org/2000/svg">
<path d="M9.0099 0.235927C6.83507 1.2187 3.91873 3.8126 2.08687 5.97551C0.76792 8.84328 0 12.0675 0 15.5657C0 23.6212 5.09113 29.4796 10.811 28.9701C12.9857 27.9873 15.9036 25.3935 17.7339 23.1902C19.0529 20.3708 19.878 17.1485 19.878 13.6403C19.878 5.58078 14.7297 -0.2756 9.0099 0.235927ZM12.0992 26.2151C6.4306 26.6501 2.54557 21.0253 2.54557 14.3472C2.54557 8.5694 4.8332 4.52148 7.69385 2.9869C13.3858 2.55593 17.2753 8.1767 17.2753 14.897C17.2753 20.6366 14.9876 24.6845 12.0992 26.2171V26.2151Z" fill="black"/>
</svg>
