<svg width="20" height="29" viewBox="0 0 20 29" fill="none" xmlns="http://www.w3.org/2000/svg">
<path d="M9.0099 0.23587C6.83507 1.21865 3.91873 3.81254 2.08687 5.97545C0.76792 8.84323 0 12.0675 0 15.5656C0 23.6212 5.09113 29.4795 10.811 28.97C12.9857 27.9872 15.9036 25.3934 17.7339 23.1902C19.0529 20.3707 19.878 17.1485 19.878 13.6403C19.878 5.58073 14.7297 -0.275658 9.0099 0.23587ZM12.0992 26.215C6.4306 26.65 2.54557 21.0252 2.54557 14.3472C2.54557 8.56934 4.8332 4.52142 7.69385 2.98684C13.3858 2.55587 17.2753 8.17664 17.2753 14.897C17.2753 20.6365 14.9876 24.6845 12.0992 26.217V26.215Z" fill="white"/>
</svg>
